<?xml version="1.0" standalone="no"?><!DOCTYPE svg PUBLIC "-//W3C//DTD SVG 1.1//EN" "http://www.w3.org/Graphics/SVG/1.1/DTD/svg11.dtd"><svg t="1588575650715" class="icon" viewBox="0 0 1024 1024" version="1.1" xmlns="http://www.w3.org/2000/svg" p-id="9089" xmlns:xlink="http://www.w3.org/1999/xlink" width="200" height="200"><defs><style type="text/css"></style></defs><path d="M512 512m-128 0a4 4 0 1 0 256 0 4 4 0 1 0-256 0Z" p-id="9090"></path><path d="M512 288c163.2 0 313.6 140.8 387.2 224-73.6 83.2-224 224-387.2 224-163.2 0-313.6-140.8-387.2-224C198.4 428.8 348.8 288 512 288M512 192C230.4 192 0 512 0 512s230.4 320 512 320 512-320 512-320S793.6 192 512 192L512 192z" p-id="9091"></path></svg>