<?xml version="1.0" standalone="no"?><!DOCTYPE svg PUBLIC "-//W3C//DTD SVG 1.1//EN" "http://www.w3.org/Graphics/SVG/1.1/DTD/svg11.dtd"><svg t="1588573527677" class="icon" viewBox="0 0 1131 1024" version="1.1" xmlns="http://www.w3.org/2000/svg" p-id="11807" xmlns:xlink="http://www.w3.org/1999/xlink" width="220.8984375" height="200"><defs><style type="text/css"></style></defs><path d="M624.226807 518.970386c0 14.497684-14.515649 28.995368-29.049263 28.995368-14.497684 0-29.031298-14.497684-29.031298-28.995368s14.533614-29.013333 29.031298-29.013333c14.551579 0 29.049263 7.275789 29.049263 29.013333z m-130.640842 0c0 57.990737 43.528982 101.483789 101.591579 101.483789 58.080561 0 101.627509-43.493053 101.627509-101.483789s-43.546947-108.723649-101.627509-108.723649c-58.062596 0-101.591579 50.732912-101.591579 108.723649zM377.442807 417.504561c0-7.257825 0-7.257825 7.23986-7.257824l-7.23986 7.257824z m573.40407-43.493052c-101.627509-28.995368-239.508211-50.732912-384.700631-43.493053H522.599298c50.804772-72.488421 101.627509-137.736982 152.432281-188.45193 79.83607-72.488421 116.143158-79.728281 130.658807-72.488421 14.497684 7.23986 29.031298 72.470456-7.27579 195.69179l72.578246 21.737544C914.593684 142.066526 907.29993 40.600702 849.219368 11.587368c-36.271158-21.737544-101.609544-21.737544-217.734736 79.764211-72.578246 57.954807-137.898667 144.958877-203.237053 239.184842-29.031298 7.23986-50.804772 7.23986-79.854035 14.497684-50.804772-144.976842-50.804772-231.944982-29.013333-246.460631 14.515649-7.23986 72.578246 7.23986 166.947929 101.483789l50.786807-50.750877c-108.867368-115.963509-195.997193-152.198737-254.023859-115.963509-72.614175 36.253193-58.080561 166.714386-7.27579 318.931088-36.289123 7.23986-65.338386 14.497684-94.351719 21.755509C29.031298 417.504561 0 475.477333 0 518.988351c0 65.230596 79.854035 123.203368 225.010526 159.456561l14.497685-72.470456c-116.125193-29.013333-166.929965-65.248561-166.929965-79.76421 0-14.479719 29.049263-43.475088 130.658807-79.710316 29.031298-7.275789 65.320421-14.515649 101.627508-21.737544 7.257825 21.737544 21.755509 50.714947 36.271158 79.710316-43.546947 86.986105-79.818105 173.972211-94.351719 253.700491-36.289123 152.216702 0 210.207439 36.289123 231.962947 14.515649 7.23986 29.049263 14.497684 43.546947 14.497685 50.822737 0 123.400982-43.475088 203.237053-123.239299l-50.804772-50.732912c-87.11186 94.225965-145.156491 108.741614-159.67214 101.465825-14.515649-7.23986-29.031298-43.475088 0-152.198737 7.23986-65.248561 29.013333-130.497123 58.062596-202.967579 7.23986 14.497684 14.497684 21.737544 21.773474 36.253193 72.596211 123.221333 152.414316 231.944982 232.268351 304.433403 79.854035 72.488421 130.658807 94.225965 174.205754 94.225965 21.773474 0 36.289123-7.23986 43.528982-14.497684 58.080561-36.235228 65.356351-130.461193 21.773474-268.180211-21.773474-72.488421-58.026667-159.474526-101.591579-239.238736l-58.062596 36.253193c43.528982 79.764211 72.578246 159.474526 94.351719 224.705122 36.289123 123.239298 21.773474 181.21207 7.257825 188.48786-14.533614 7.23986-50.804772 0-130.658807-72.488421-72.578246-65.248561-152.432281-173.990175-217.734737-289.953684-21.773474-28.995368-36.307088-50.750877-43.564913-79.728281 7.257825-21.737544 21.791439-43.493053 36.289123-65.248561 7.275789-7.23986 14.551579-21.737544 14.551579-28.977404h94.31579c137.916632 0 268.575439 14.497684 362.927158 43.475088 101.627509 28.995368 130.658807 65.248561 130.658807 79.728281 0 21.755509-43.546947 58.026667-174.205755 87.00407l14.515649 72.470456c152.432281-36.253193 225.028491-94.225965 225.028491-159.474526 7.23986-50.732912-29.031298-108.687719-174.223719-152.198737z" p-id="11808"></path></svg>