<?xml version="1.0" standalone="no"?><!DOCTYPE svg PUBLIC "-//W3C//DTD SVG 1.1//EN" "http://www.w3.org/Graphics/SVG/1.1/DTD/svg11.dtd"><svg t="1588576013458" class="icon" viewBox="0 0 1024 1024" version="1.1" xmlns="http://www.w3.org/2000/svg" p-id="11107" xmlns:xlink="http://www.w3.org/1999/xlink" width="200" height="200"><defs><style type="text/css"></style></defs><path d="M584.265143 950.857143H109.714286a36.571429 36.571429 0 0 1-36.571429-36.571429V109.714286a36.571429 36.571429 0 0 1 36.571429-36.571429H731.428571a36.571429 36.571429 0 0 1 36.571429 36.571429 36.571429 36.571429 0 1 0 73.142857 0A109.714286 109.714286 0 0 0 731.428571 0H109.714286A109.714286 109.714286 0 0 0 0 109.714286v804.571428A109.714286 109.714286 0 0 0 109.714286 1024h474.550857a36.571429 36.571429 0 1 0 0-73.142857z" p-id="11108"></path><path d="M512 256a36.571429 36.571429 0 0 0-36.571429-36.571429h-292.571428a36.571429 36.571429 0 0 0 0 73.142858h292.571428a36.571429 36.571429 0 0 0 36.571429-36.571429z m-36.571429 219.428571A36.571429 36.571429 0 0 0 438.857143 438.857143H182.857143a36.571429 36.571429 0 0 0 0 73.142857H438.857143a36.571429 36.571429 0 0 0 36.571428-36.571429z m-292.571428 219.428572a36.571429 36.571429 0 1 0 0 73.142857h146.285714a36.571429 36.571429 0 1 0 0-73.142857h-146.285714z m731.428571-54.857143h-75.629714c27.696762-77.385143 75.629714-219.818667 75.629714-237.714286a182.857143 182.857143 0 0 0-365.714285 0c0 22.918095 45.543619 159.695238 75.093333 237.714286h-75.093333A109.714286 109.714286 0 0 0 438.857143 749.714286v36.571428a109.714286 109.714286 0 0 0 109.714286 109.714286h365.714285a109.714286 109.714286 0 0 0 109.714286-109.714286v-36.571428a109.714286 109.714286 0 0 0-109.714286-109.714286z m-253.171809-112.542476c-22.137905-63.73181-39.399619-119.905524-39.399619-125.17181a109.714286 109.714286 0 1 1 219.428571 0c0 7.216762-59.63581 181.101714-80.408381 237.714286h-58.514286a3209.411048 3209.411048 0 0 1-41.106285-112.542476z m289.743238 258.82819a36.571429 36.571429 0 0 1-36.571429 36.571429h-365.714285a36.571429 36.571429 0 0 1-36.571429-36.571429v-36.571428a36.571429 36.571429 0 0 1 36.571429-36.571429h365.714285a36.571429 36.571429 0 0 1 36.571429 36.571429v36.571428z" p-id="11109"></path></svg>