<?xml version="1.0" standalone="no"?><!DOCTYPE svg PUBLIC "-//W3C//DTD SVG 1.1//EN" "http://www.w3.org/Graphics/SVG/1.1/DTD/svg11.dtd"><svg t="1588573127862" class="icon" viewBox="0 0 1024 1024" version="1.1" xmlns="http://www.w3.org/2000/svg" p-id="7378" xmlns:xlink="http://www.w3.org/1999/xlink" width="200" height="200"><defs><style type="text/css"></style></defs><path d="M897.536 0H131.072A126.848 126.848 0 0 0 4.608 126.976v770.56A126.72 126.72 0 0 0 131.072 1024h766.976c69.12 0 126.464-57.344 126.464-126.976V126.976A127.296 127.296 0 0 0 897.536 0zM131.072 52.736h766.976c40.96 0 73.728 33.28 73.728 74.24v125.44H56.832v-125.44c0-40.96 33.28-74.24 74.24-74.24z m766.464 918.528H131.072c-40.96 0-73.728-33.28-73.728-74.24V304.64h914.432v592.384c0 40.96-33.28 74.24-74.24 74.24z" p-id="7379"></path><path d="M156.672 186.88c34.304 0 34.304-54.272 0-54.272-34.816 0-34.816 54.272 0 54.272zM266.24 186.88c34.816 0 34.816-54.272 0-54.272s-34.816 54.272 0 54.272zM376.32 186.88c34.816 0 34.816-54.272 0-54.272-35.328 0-35.328 54.272 0 54.272zM193.536 665.088l129.536-140.8a26.56 26.56 0 0 0 0-37.376 25.664 25.664 0 0 0-37.376 0l-148.48 159.232c-4.608 5.12-7.68 11.776-7.68 18.944s3.072 13.824 7.68 18.944l148.992 162.816a25.984 25.984 0 0 0 36.864 0 26.56 26.56 0 0 0 0-37.376l-129.536-144.384zM748.032 486.912a25.664 25.664 0 0 0-37.376 0 26.56 26.56 0 0 0 0 37.376l129.536 140.8-130.56 143.872a26.56 26.56 0 0 0 0 37.376c5.12 5.12 12.288 7.68 18.432 7.68 7.168 0 13.312-2.56 18.432-7.68l148.992-162.816c4.608-4.608 7.68-11.776 7.68-18.944s-3.072-13.312-7.68-18.944l-147.456-158.72zM628.672 451.712a31.488 31.488 0 0 1 12.032 42.88l-197.312 351.36a31.488 31.488 0 1 1-54.912-30.848l197.312-351.36a31.488 31.488 0 0 1 42.88-12.032z" p-id="7380"></path></svg>