<?xml version="1.0" standalone="no"?><!DOCTYPE svg PUBLIC "-//W3C//DTD SVG 1.1//EN" "http://www.w3.org/Graphics/SVG/1.1/DTD/svg11.dtd"><svg t="1588575452053" class="icon" viewBox="0 0 1178 1024" version="1.1" xmlns="http://www.w3.org/2000/svg" p-id="19154" xmlns:xlink="http://www.w3.org/1999/xlink" width="230.078125" height="200"><defs><style type="text/css"></style></defs><path d="M636.281717 0.255936C397.544601 0.255936 197.505011 163.901425 140.891964 385.030142l0.511872 0.153562-7.780455 27.692277-12.950362-23.085429A63.984004 63.984004 0 1 0 9.033729 452.290127l88.400299 157.861335a63.830442 63.830442 0 0 0 87.12062 24.569858l157.810148-88.4003a63.984004 63.984004 0 1 0-62.499575-111.63929L256.779792 447.632092l10.186253-36.086978h-0.102374C311.140602 248.462684 459.225181 128.223944 636.281717 128.223944a383.904024 383.904024 0 0 1 0 767.808048 381.805349 381.805349 0 0 1-190.621145-50.931267l-0.716621 1.228493c-9.725569-5.988903-20.474881-10.237441-32.708623-10.237441-35.31917 0-63.984004 28.562459-63.984004 63.984004 0 23.853237 13.666983 43.867433 33.015746 54.821495l-0.255936 0.511872c1.27968 0.716621 2.661735 1.228493 3.83904 1.945113 1.382054 0.614246 2.661735 1.330867 4.043789 1.893927A507.213997 507.213997 0 0 0 636.281717 1024c282.655736 0 511.872032-229.165109 511.872032-511.872032 0-282.75811-229.216296-511.872032-511.872032-511.872032" p-id="19155"></path><path d="M598.607935 592.235941a28.204149 28.204149 0 0 1-28.613647-28.664834V304.307923c0-16.072782 12.540865-28.664834 28.613647-28.664834h57.176106c16.123969 0 28.613647 12.592052 28.613647 28.664834v173.524619h247.950812c16.072782 0 28.562459 12.489678 28.562459 28.613646v57.176106a28.204149 28.204149 0 0 1-28.562459 28.613647h-333.740565z" p-id="19156"></path></svg>