<?xml version="1.0" standalone="no"?><!DOCTYPE svg PUBLIC "-//W3C//DTD SVG 1.1//EN" "http://www.w3.org/Graphics/SVG/1.1/DTD/svg11.dtd"><svg t="1594341116038" class="icon" viewBox="0 0 1152 1024" version="1.1" xmlns="http://www.w3.org/2000/svg" p-id="2629" xmlns:xlink="http://www.w3.org/1999/xlink" width="225" height="200"><defs><style type="text/css"></style></defs><path d="M1056 64H96C43 64 0 107 0 160v704c0 53 43 96 96 96h960c53 0 96-43 96-96V160c0-53-43-96-96-96z m0 800H606.4c1.8-9 1.6 7.2 1.6-44.8 0-63.6-60.2-115.2-134.4-115.2-21.6 0-37.4 16-89.6 16-53.8 0-66.8-16-89.6-16-74.2 0-134.4 51.6-134.4 115.2 0 52-0.4 35.8 1.6 44.8H96V288h960v576z m-336-160h224c8.8 0 16-7.2 16-16v-32c0-8.8-7.2-16-16-16H720c-8.8 0-16 7.2-16 16v32c0 8.8 7.2 16 16 16z m0-128h224c8.8 0 16-7.2 16-16v-32c0-8.8-7.2-16-16-16H720c-8.8 0-16 7.2-16 16v32c0 8.8 7.2 16 16 16z m0-128h224c8.8 0 16-7.2 16-16v-32c0-8.8-7.2-16-16-16H720c-8.8 0-16 7.2-16 16v32c0 8.8 7.2 16 16 16z m-336 192c70.6 0 128-57.4 128-128s-57.4-128-128-128-128 57.4-128 128 57.4 128 128 128z" p-id="2630"></path></svg>