<?xml version="1.0" standalone="no"?><!DOCTYPE svg PUBLIC "-//W3C//DTD SVG 1.1//EN" "http://www.w3.org/Graphics/SVG/1.1/DTD/svg11.dtd"><svg t="1588573855731" class="icon" viewBox="0 0 1024 1024" version="1.1" xmlns="http://www.w3.org/2000/svg" p-id="15086" xmlns:xlink="http://www.w3.org/1999/xlink" width="200" height="200"><defs><style type="text/css"></style></defs><path d="M778.229641 800.242792l-3.237228-1.294891c-16.833586-6.474456-23.308042-9.711684-23.308043-16.833586 0-11.654021 12.948912-12.948912 18.775923-12.948913 7.121902 0 14.243804 1.942337 21.365706 6.474456 2.589782 1.294891 5.179565 2.589782 8.416793 2.589783 5.179565 0 9.711684-2.589782 12.948913-6.474456 2.589782-3.884674 3.884674-8.416793 2.589782-12.948913-0.647446-4.532119-3.884674-8.416793-7.769347-10.35913-8.416793-5.179565-17.481032-8.416793-26.545271-9.711684V731.613556c0-8.416793-7.121902-15.538695-15.538695-15.538695s-15.538695 7.121902-15.538695 15.538695v9.064239c-20.71826 6.474456-34.314618 22.660597-34.314618 43.378856 0 29.782499 29.782499 40.789074 45.321194 46.616085 16.186141 5.827011 27.192716 11.006576 27.192716 20.070815 0 13.596358-14.243804 14.891249-20.71826 14.891249-10.35913 0-20.070814-3.237228-30.429944-9.711684-2.589782-1.942337-5.827011-2.589782-9.064239-2.589783-5.179565 0-9.711684 2.589782-12.948913 6.474457-2.589782 3.884674-3.884674 8.416793-3.237228 12.301466 0.647446 4.532119 3.237228 8.416793 7.121902 10.35913 10.35913 6.474456 21.365706 11.006576 33.019727 12.948913v5.179565c0 8.416793 7.121902 15.538695 15.538695 15.538695s15.538695-7.121902 15.538695-15.538695v-5.827011c24.602934-5.179565 40.141629-23.308042 40.141629-45.968639 0.647446-31.07739-24.602934-40.789074-45.321194-48.558422z" fill="#A5AFB4" p-id="15087"></path><path d="M953.687405 860.455235l-19.423369-89.347496c-9.064239-42.083966-34.962064-77.693475-69.924127-99.706626 11.654021-9.711684 38.846737-34.962064 40.141629-63.449671 0.647446-13.596358-5.179565-26.545271-15.538695-35.60951-17.481032-15.538695-33.667172-16.833586-44.026303-16.18614-17.481032 1.942337-33.667172 12.301467-47.26353 31.724835-7.769347 11.006576-20.71826 17.481032-33.667173 17.481032s-25.897825-6.474456-33.667172-17.481032c-14.243804-19.423369-29.782499-29.782499-47.263531-31.724835-10.35913-1.294891-27.192716 0.647446-44.026302 16.18614-11.006576 9.711684-16.186141 22.013151-15.538695 35.60951 1.294891 29.782499 31.07739 56.327769 41.43652 64.744562-37.551846 23.955488-66.039454 62.15478-75.751139 107.475974l-16.833586 79.635812c-7.121902 31.724836 1.294891 64.744562 21.365706 89.994941s50.500759 39.494183 83.520485 39.494184h173.515428c32.372281 0 62.802226-14.243804 83.520485-39.494184 18.128477-25.250379 25.897825-57.622661 19.423369-89.347496zM833.909965 615.073343c7.121902-9.064239 12.301467-12.948912 15.538695-13.596358 3.237228 0 7.121902 2.589782 9.064238 4.53212l0.647446 0.647445c0 5.827011-12.301467 21.365706-26.545271 32.372282-4.532119 3.884674-7.769347 9.064239-8.416793 14.243803-11.654021-3.237228-23.955488-5.827011-36.9044-5.82701 18.775923-5.179565 34.962064-16.833586 46.616085-32.372282z m-139.848255 23.955489c-14.243804-11.006576-25.897825-26.545271-26.545271-32.372282l0.647446-0.647445c1.942337-1.942337 6.474456-5.179565 9.064238-4.53212 3.237228 0.647446 9.064239 3.884674 15.538695 13.596358 11.654021 16.186141 28.487607 27.192716 47.263531 33.019727-12.948912 1.294891-25.250379 3.884674-37.551846 7.121902-0.647446-6.474456-3.237228-12.301467-8.416793-16.18614z m202.65048 282.286292c-11.654021 14.243804-29.135053 22.660597-47.910976 22.660597h-173.515427c-18.775923 0-36.256955-8.416793-47.910977-22.660597-11.654021-14.243804-16.186141-33.667172-12.301467-51.79565l16.833587-79.635812c12.301467-56.327769 62.802226-97.764289 121.072332-97.764289h27.840161c52.443096 0 98.411735 36.904401 109.418311 88.052605l19.423369 89.347496c3.237228 18.775923-1.294891 37.551846-12.948913 51.79565zM504.360142 507.59737c-131.431462 0-237.612544-106.828528-237.612545-237.612545S373.576125 32.372281 504.360142 32.372281s237.612544 106.828528 237.612544 237.612544-106.181082 237.612544-237.612544 237.612545z m0-424.076884c-102.943854 0-185.816894 83.520486-185.816895 185.816894s83.520486 185.816894 185.816895 185.816894 185.816894-83.520486 185.816894-185.816894-82.87304-185.816894-185.816894-185.816894zM95.821952 971.168437c-14.243804 0-25.897825-11.654021-25.897825-25.897825v-9.711684c0-209.124937 194.881133-378.75569 434.436015-378.755691 14.243804 0 25.897825 11.654021 25.897825 25.897825s-11.654021 25.897825-25.897825 25.897825c-211.067274 0-382.640364 146.970157-382.640365 326.960041v9.711684c0 14.243804-11.654021 25.897825-25.897825 25.897825z" fill="#A5AFB4" p-id="15088"></path></svg>