<?xml version="1.0" standalone="no"?><!DOCTYPE svg PUBLIC "-//W3C//DTD SVG 1.1//EN" "http://www.w3.org/Graphics/SVG/1.1/DTD/svg11.dtd"><svg t="1588749504613" class="icon" viewBox="0 0 1024 1024" version="1.1" xmlns="http://www.w3.org/2000/svg" p-id="2619" xmlns:xlink="http://www.w3.org/1999/xlink" width="200" height="200"><defs><style type="text/css"></style></defs><path d="M621.714286 717.714286v137.142857q0 9.142857-6.857143 16t-16 6.857143H461.714286q-9.142857 0-16-6.857143t-6.857143-16v-137.142857q0-9.142857 6.857143-16t16-6.857143h137.142857q9.142857 0 16 6.857143t6.857143 16z m180.571428-342.857143q0 30.857143-8.857143 57.714286t-20 43.714285-31.428571 34-32.857143 24.857143-34.857143 20.285714q-23.428571 13.142857-39.142857 37.142858t-15.714286 38.285714q0 9.714286-6.857142 18.571428t-16 8.857143H459.428571q-8.571429 0-14.571428-10.571428T438.857143 626.285714v-25.714285q0-47.428571 37.142857-89.428572T557.714286 449.142857q33.714286-15.428571 48-32t14.285714-43.428571q0-24-26.571429-42.285715T532 313.142857q-37.142857 0-61.714286 16.571429-20 14.285714-61.142857 65.714285-7.428571 9.142857-17.714286 9.142858-6.857143 0-14.285714-4.571429L283.428571 328.571429q-7.428571-5.714286-8.857142-14.285715t3.142857-16q91.428571-152 265.142857-152 45.714286 0 92 17.714286t83.428571 47.428571 60.571429 72.857143 23.428571 90.571429z" p-id="2620"></path></svg>
