<?xml version="1.0" standalone="no"?><!DOCTYPE svg PUBLIC "-//W3C//DTD SVG 1.1//EN" "http://www.w3.org/Graphics/SVG/1.1/DTD/svg11.dtd"><svg t="1592154176130" class="icon" viewBox="0 0 1024 1024" version="1.1" xmlns="http://www.w3.org/2000/svg" p-id="2197" xmlns:xlink="http://www.w3.org/1999/xlink" width="200" height="200"><defs><style type="text/css"></style></defs><path d="M934.036773 8.000708C864.75479-17.071797 788.206899 18.746067 763.134394 88.028049c-11.871063 32.747761-10.131339 67.030574 2.251409 96.81057l-145.318191 113.49146c-16.885564-18.215942-38.273946-32.747761-63.244114-41.753396-84.018475-30.496353-176.940247 12.996768-207.334263 97.015243-0.716357 2.046735-1.432715 4.09347-2.046735 6.140205L222.079976 349.907802c-8.698624-34.794496-34.078139-64.779165-70.30535-77.878269C93.749687 250.948161 29.686879 280.93283 8.707845 338.95777-12.27119 396.982709 17.611142 461.045517 75.636082 482.024552c58.024939 20.979035 122.087747-8.903298 143.066781-66.928237 1.023368-2.967766 1.944398-5.833195 2.763093-8.800961l118.403624 9.312644c2.660756 63.653461 42.981437 122.394758 106.634898 145.420528 48.302948 17.499585 99.573661 10.643022 140.201352-14.429483l94.149814 111.854072c-9.107971 14.941166-15.45285 31.929067-18.215942 50.247346-10.745359 72.966105 39.70666 140.713037 112.672766 151.458396s140.713037-39.70666 151.458395-112.672766-39.70666-140.713037-112.672766-151.458396c-34.282813-5.014501-67.439921 3.47945-94.047476 21.490719l-91.182048-108.374623c10.438349-13.303778 19.034636-28.449618 25.072505-45.130508 14.531819-39.911334 12.28041-81.869403-3.070103-118.198951l146.750905-114.617164c12.792094 11.871063 28.040271 21.490718 45.539855 27.835597 69.281982 25.072505 145.829874-10.643022 170.902379-80.027341 25.072505-69.281982-10.643022-145.829874-80.027341-171.004716z" p-id="2198"></path></svg>