<?xml version="1.0" standalone="no"?><!DOCTYPE svg PUBLIC "-//W3C//DTD SVG 1.1//EN" "http://www.w3.org/Graphics/SVG/1.1/DTD/svg11.dtd"><svg t="1588573040425" class="icon" viewBox="0 0 1024 1024" version="1.1" xmlns="http://www.w3.org/2000/svg" p-id="6583" xmlns:xlink="http://www.w3.org/1999/xlink" width="200" height="200"><defs><style type="text/css"></style></defs><path d="M945.230769 118.153846a39.384615 39.384615 0 0 0-39.384615-39.384615h-787.692308a39.384615 39.384615 0 0 0-39.384615 39.384615v787.692308a39.384615 39.384615 0 0 0 39.384615 39.384615h787.692308a39.384615 39.384615 0 0 0 39.384615-39.384615v-787.692308zM905.846154 1024h-787.692308A118.153846 118.153846 0 0 1 0 905.846154v-787.692308A118.153846 118.153846 0 0 1 118.153846 0h787.692308A118.153846 118.153846 0 0 1 1024 118.153846v787.692308a118.153846 118.153846 0 0 1-118.153846 118.153846z m-393.846154-236.307692a39.384615 39.384615 0 0 1 0-78.769231h315.076923a39.384615 39.384615 0 0 1 0 78.769231h-315.076923z m-315.076923-315.076923a39.384615 39.384615 0 0 1 0-78.769231h315.076923a39.384615 39.384615 0 0 1 0 78.769231h-315.076923zM315.076923 275.692308a39.384615 39.384615 0 0 1 78.769231 0v315.076923a39.384615 39.384615 0 0 1-78.769231 0v-315.076923zM708.923077 393.846154a78.769231 78.769231 0 1 0 0-157.538462 78.769231 78.769231 0 0 0 0 157.538462z" p-id="6584"></path></svg>