<?xml version="1.0" standalone="no"?><!DOCTYPE svg PUBLIC "-//W3C//DTD SVG 1.1//EN" "http://www.w3.org/Graphics/SVG/1.1/DTD/svg11.dtd"><svg t="1592154299149" class="icon" viewBox="0 0 1024 1024" version="1.1" xmlns="http://www.w3.org/2000/svg" p-id="8326" xmlns:xlink="http://www.w3.org/1999/xlink" width="200" height="200"><defs><style type="text/css"></style></defs><path d="M88.9 98H927v140.2H88.9V98z m0 165.1h273.8v672H88.9v-672z" fill="#707070" p-id="8327"></path><path d="M64 64v896h896V64H64z m298.7 861.5H98.5V792.9h264.2v132.6z m0-164.6H98.5V618.7h264.2v142.2z m0-174.2H98.5V444.4h264.2v142.3z m0-174.3H98.5V270.2h264.2v142.2z m273.7 513.1H394.7V792.9h241.8l-0.1 132.6z m0-164.6H394.7V618.7h241.8l-0.1 142.2z m0-174.2H394.7V444.4h241.8l-0.1 142.3z m0-174.3H394.7V270.2h241.8l-0.1 142.2z m289.1 513.1H668.4V792.9h257.1v132.6z m0-164.6H668.4V618.7h257.1v142.2z m0-174.2H668.4V444.4h257.1v142.3z m0-174.3H668.4V270.2h257.1v142.2z m0-174.2h-827V98.5h827.1l-0.1 139.7z" fill="#707070" p-id="8328"></path></svg>