<?xml version="1.0" standalone="no"?><!DOCTYPE svg PUBLIC "-//W3C//DTD SVG 1.1//EN" "http://www.w3.org/Graphics/SVG/1.1/DTD/svg11.dtd"><svg t="1588322394098" class="icon" viewBox="0 0 1024 1024" version="1.1" xmlns="http://www.w3.org/2000/svg" p-id="2077" xmlns:xlink="http://www.w3.org/1999/xlink" width="200" height="200"><defs><style type="text/css"></style></defs><path d="M768 435.2c0-12.8-12.8-25.6-25.6-25.6H281.6c-12.8 0-25.6 12.8-25.6 25.6s12.8 25.6 25.6 25.6h460.8c12.8 0 25.6-12.8 25.6-25.6z m-335.36 128H286.72c-15.36 0-28.16 10.24-28.16 25.6 0 12.8 12.8 25.6 28.16 25.6h145.92c15.36 0 28.16-12.8 28.16-25.6 0-15.36-12.8-25.6-28.16-25.6z m0 153.6H286.72c-15.36 0-28.16 10.24-28.16 25.6 0 12.8 12.8 25.6 28.16 25.6h145.92c15.36 0 28.16-12.8 28.16-25.6 0-15.36-12.8-25.6-28.16-25.6zM742.4 256H281.6c-12.8 0-25.6 12.8-25.6 25.6s12.8 25.6 25.6 25.6h460.8c12.8 0 25.6-12.8 25.6-25.6S755.2 256 742.4 256z" fill="" p-id="2078"></path><path d="M512 921.6H153.6V102.4h716.8v384c0 15.36 10.24 25.6 25.6 25.6s25.6-10.24 25.6-25.6V76.8c0-12.8-12.8-25.6-25.6-25.6H128c-12.8 0-25.6 12.8-25.6 25.6v870.4c0 12.8 12.8 25.6 25.6 25.6h384c15.36 0 25.6-10.24 25.6-25.6s-10.24-25.6-25.6-25.6z" fill="" p-id="2079"></path><path d="M768 563.2c-112.64 0-204.8 92.16-204.8 204.8S655.36 972.8 768 972.8 972.8 880.64 972.8 768 880.64 563.2 768 563.2z m0 358.4c-84.48 0-153.6-69.12-153.6-153.6S683.52 614.4 768 614.4 921.6 683.52 921.6 768 852.48 921.6 768 921.6z" fill="" p-id="2080"></path><path d="M844.8 742.4h-51.2v-51.2c0-12.8-12.8-25.6-25.6-25.6s-25.6 12.8-25.6 25.6V768c0 12.8 12.8 25.6 25.6 25.6h76.8c12.8 0 25.6-12.8 25.6-25.6s-12.8-25.6-25.6-25.6z" fill="" p-id="2081"></path></svg>