<?xml version="1.0" standalone="no"?><!DOCTYPE svg PUBLIC "-//W3C//DTD SVG 1.1//EN" "http://www.w3.org/Graphics/SVG/1.1/DTD/svg11.dtd"><svg t="1594340824314" class="icon" viewBox="0 0 1024 1024" version="1.1" xmlns="http://www.w3.org/2000/svg" p-id="1665" xmlns:xlink="http://www.w3.org/1999/xlink" width="200" height="200"><defs><style type="text/css"></style></defs><path d="M983.8 312.7C958 251.7 921 197 874 150c-47-47-101.7-84-162.7-109.7C648.2 13.5 581.1 0 512 0S375.8 13.5 312.7 40.3C251.7 66 197 103 150 150c-47 47-84 101.7-109.7 162.7C13.5 375.8 0 442.9 0 512s13.5 136.2 40.3 199.3C66 772.3 103 827 150 874c47 47 101.8 83.9 162.7 109.7 63.1 26.7 130.2 40.3 199.3 40.3s136.2-13.5 199.3-40.3C772.3 958 827 921 874 874c47-47 83.9-101.8 109.7-162.7 26.7-63.1 40.3-130.2 40.3-199.3s-13.5-136.2-40.2-199.3zM717 665.6l-54.8 54.8C566.6 735.1 465.6 705.6 392 632c-73.6-73.6-103.1-174.6-88.4-270.2l54.8-54.8c9.3-9.3 24.3-9.3 33.6 0l86.4 86.4c9.3 9.3 9.3 24.3 0 33.6L421 484.4l-0.4 0.4c0.1 30.3 11.8 60.6 34.9 83.7 23.4 23.4 54 35 84.6 34.9l0.4-0.4 57-57c9.3-9.3 24.3-9.3 33.6 0l85.9 85.9c9.3 9.3 9.3 24.4 0 33.7z" fill="" p-id="1666"></path></svg>